<svg width="12" height="435" viewBox="0 0 12 435" fill="none" xmlns="http://www.w3.org/2000/svg">
<path d="M6 0.669873L1.66987 5L6 9.33013L10.3301 5L6 0.669873ZM5.46967 434.53C5.76256 434.823 6.23744 434.823 6.53033 434.53L11.3033 429.757C11.5962 429.464 11.5962 428.99 11.3033 428.697C11.0104 428.404 10.5355 428.404 10.2426 428.697L6 432.939L1.75736 428.697C1.46447 428.404 0.989593 428.404 0.696699 428.697C0.403806 428.99 0.403806 429.464 0.696699 429.757L5.46967 434.53ZM5.25 6.48958C5.25 6.9038 5.58579 7.23958 6 7.23958C6.41421 7.23958 6.75 6.9038 6.75 6.48958H5.25ZM6.75 12.4479C6.75 12.0337 6.41421 11.6979 6 11.6979C5.58579 11.6979 5.25 12.0337 5.25 12.4479H6.75ZM5.25 15.4271C5.25 15.8413 5.58579 16.1771 6 16.1771C6.41421 16.1771 6.75 15.8413 6.75 15.4271H5.25ZM6.75 21.3854C6.75 20.9712 6.41421 20.6354 6 20.6354C5.58579 20.6354 5.25 20.9712 5.25 21.3854H6.75ZM5.25 24.3646C5.25 24.7788 5.58579 25.1146 6 25.1146C6.41421 25.1146 6.75 24.7788 6.75 24.3646H5.25ZM6.75 30.3229C6.75 29.9087 6.41421 29.5729 6 29.5729C5.58579 29.5729 5.25 29.9087 5.25 30.3229H6.75ZM5.25 33.3021C5.25 33.7163 5.58579 34.0521 6 34.0521C6.41421 34.0521 6.75 33.7163 6.75 33.3021H5.25ZM6.75 39.2604C6.75 38.8462 6.41421 38.5104 6 38.5104C5.58579 38.5104 5.25 38.8462 5.25 39.2604H6.75ZM5.25 42.2396C5.25 42.6538 5.58579 42.9896 6 42.9896C6.41421 42.9896 6.75 42.6538 6.75 42.2396H5.25ZM6.75 48.1979C6.75 47.7837 6.41421 47.4479 6 47.4479C5.58579 47.4479 5.25 47.7837 5.25 48.1979H6.75ZM5.25 51.1771C5.25 51.5913 5.58579 51.9271 6 51.9271C6.41421 51.9271 6.75 51.5913 6.75 51.1771H5.25ZM6.75 57.1354C6.75 56.7212 6.41421 56.3854 6 56.3854C5.58579 56.3854 5.25 56.7212 5.25 57.1354H6.75ZM5.25 60.1146C5.25 60.5288 5.58579 60.8646 6 60.8646C6.41421 60.8646 6.75 60.5288 6.75 60.1146H5.25ZM6.75 66.0729C6.75 65.6587 6.41421 65.3229 6 65.3229C5.58579 65.3229 5.25 65.6587 5.25 66.0729H6.75ZM5.25 69.0521C5.25 69.4663 5.58579 69.8021 6 69.8021C6.41421 69.8021 6.75 69.4663 6.75 69.0521H5.25ZM6.75 75.0104C6.75 74.5962 6.41421 74.2604 6 74.2604C5.58579 74.2604 5.25 74.5962 5.25 75.0104H6.75ZM5.25 77.9896C5.25 78.4038 5.58579 78.7396 6 78.7396C6.41421 78.7396 6.75 78.4038 6.75 77.9896H5.25ZM6.75 83.9479C6.75 83.5337 6.41421 83.1979 6 83.1979C5.58579 83.1979 5.25 83.5337 5.25 83.9479H6.75ZM5.25 86.9271C5.25 87.3413 5.58579 87.6771 6 87.6771C6.41421 87.6771 6.75 87.3413 6.75 86.9271H5.25ZM6.75 92.8854C6.75 92.4712 6.41421 92.1354 6 92.1354C5.58579 92.1354 5.25 92.4712 5.25 92.8854H6.75ZM5.25 95.8646C5.25 96.2788 5.58579 96.6146 6 96.6146C6.41421 96.6146 6.75 96.2788 6.75 95.8646H5.25ZM6.75 101.823C6.75 101.409 6.41421 101.073 6 101.073C5.58579 101.073 5.25 101.409 5.25 101.823H6.75ZM5.25 104.802C5.25 105.216 5.58579 105.552 6 105.552C6.41421 105.552 6.75 105.216 6.75 104.802H5.25ZM6.75 110.76C6.75 110.346 6.41421 110.01 6 110.01C5.58579 110.01 5.25 110.346 5.25 110.76H6.75ZM5.25 113.74C5.25 114.154 5.58579 114.49 6 114.49C6.41421 114.49 6.75 114.154 6.75 113.74H5.25ZM6.75 119.698C6.75 119.284 6.41421 118.948 6 118.948C5.58579 118.948 5.25 119.284 5.25 119.698H6.75ZM5.25 122.677C5.25 123.091 5.58579 123.427 6 123.427C6.41421 123.427 6.75 123.091 6.75 122.677H5.25ZM6.75 128.635C6.75 128.221 6.41421 127.885 6 127.885C5.58579 127.885 5.25 128.221 5.25 128.635H6.75ZM5.25 131.615C5.25 132.029 5.58579 132.365 6 132.365C6.41421 132.365 6.75 132.029 6.75 131.615H5.25ZM6.75 137.573C6.75 137.159 6.41421 136.823 6 136.823C5.58579 136.823 5.25 137.159 5.25 137.573H6.75ZM5.25 140.552C5.25 140.966 5.58579 141.302 6 141.302C6.41421 141.302 6.75 140.966 6.75 140.552H5.25ZM6.75 146.51C6.75 146.096 6.41421 145.76 6 145.76C5.58579 145.76 5.25 146.096 5.25 146.51H6.75ZM5.25 149.49C5.25 149.904 5.58579 150.24 6 150.24C6.41421 150.24 6.75 149.904 6.75 149.49H5.25ZM6.75 155.448C6.75 155.034 6.41421 154.698 6 154.698C5.58579 154.698 5.25 155.034 5.25 155.448H6.75ZM5.25 158.427C5.25 158.841 5.58579 159.177 6 159.177C6.41421 159.177 6.75 158.841 6.75 158.427H5.25ZM6.75 164.385C6.75 163.971 6.41421 163.635 6 163.635C5.58579 163.635 5.25 163.971 5.25 164.385H6.75ZM5.25 167.365C5.25 167.779 5.58579 168.115 6 168.115C6.41421 168.115 6.75 167.779 6.75 167.365H5.25ZM6.75 173.323C6.75 172.909 6.41421 172.573 6 172.573C5.58579 172.573 5.25 172.909 5.25 173.323H6.75ZM5.25 176.302C5.25 176.716 5.58579 177.052 6 177.052C6.41421 177.052 6.75 176.716 6.75 176.302H5.25ZM6.75 182.26C6.75 181.846 6.41421 181.51 6 181.51C5.58579 181.51 5.25 181.846 5.25 182.26H6.75ZM5.25 185.24C5.25 185.654 5.58579 185.99 6 185.99C6.41421 185.99 6.75 185.654 6.75 185.24H5.25ZM6.75 191.198C6.75 190.784 6.41421 190.448 6 190.448C5.58579 190.448 5.25 190.784 5.25 191.198H6.75ZM5.25 194.177C5.25 194.591 5.58579 194.927 6 194.927C6.41421 194.927 6.75 194.591 6.75 194.177H5.25ZM6.75 200.135C6.75 199.721 6.41421 199.385 6 199.385C5.58579 199.385 5.25 199.721 5.25 200.135H6.75ZM5.25 203.115C5.25 203.529 5.58579 203.865 6 203.865C6.41421 203.865 6.75 203.529 6.75 203.115H5.25ZM6.75 209.073C6.75 208.659 6.41421 208.323 6 208.323C5.58579 208.323 5.25 208.659 5.25 209.073H6.75ZM5.25 212.052C5.25 212.466 5.58579 212.802 6 212.802C6.41421 212.802 6.75 212.466 6.75 212.052H5.25ZM6.75 218.01C6.75 217.596 6.41421 217.26 6 217.26C5.58579 217.26 5.25 217.596 5.25 218.01H6.75ZM5.25 220.99C5.25 221.404 5.58579 221.74 6 221.74C6.41421 221.74 6.75 221.404 6.75 220.99H5.25ZM6.75 226.948C6.75 226.534 6.41421 226.198 6 226.198C5.58579 226.198 5.25 226.534 5.25 226.948H6.75ZM5.25 229.927C5.25 230.341 5.58579 230.677 6 230.677C6.41421 230.677 6.75 230.341 6.75 229.927H5.25ZM6.75 235.885C6.75 235.471 6.41421 235.135 6 235.135C5.58579 235.135 5.25 235.471 5.25 235.885H6.75ZM5.25 238.865C5.25 239.279 5.58579 239.615 6 239.615C6.41421 239.615 6.75 239.279 6.75 238.865H5.25ZM6.75 244.823C6.75 244.409 6.41421 244.073 6 244.073C5.58579 244.073 5.25 244.409 5.25 244.823H6.75ZM5.25 247.802C5.25 248.216 5.58579 248.552 6 248.552C6.41421 248.552 6.75 248.216 6.75 247.802H5.25ZM6.75 253.76C6.75 253.346 6.41421 253.01 6 253.01C5.58579 253.01 5.25 253.346 5.25 253.76H6.75ZM5.25 256.74C5.25 257.154 5.58579 257.49 6 257.49C6.41421 257.49 6.75 257.154 6.75 256.74H5.25ZM6.75 262.698C6.75 262.284 6.41421 261.948 6 261.948C5.58579 261.948 5.25 262.284 5.25 262.698H6.75ZM5.25 265.677C5.25 266.091 5.58579 266.427 6 266.427C6.41421 266.427 6.75 266.091 6.75 265.677H5.25ZM6.75 271.635C6.75 271.221 6.41421 270.885 6 270.885C5.58579 270.885 5.25 271.221 5.25 271.635H6.75ZM5.25 274.615C5.25 275.029 5.58579 275.365 6 275.365C6.41421 275.365 6.75 275.029 6.75 274.615H5.25ZM6.75 280.573C6.75 280.159 6.41421 279.823 6 279.823C5.58579 279.823 5.25 280.159 5.25 280.573H6.75ZM5.25 283.552C5.25 283.966 5.58579 284.302 6 284.302C6.41421 284.302 6.75 283.966 6.75 283.552H5.25ZM6.75 289.51C6.75 289.096 6.41421 288.76 6 288.76C5.58579 288.76 5.25 289.096 5.25 289.51H6.75ZM5.25 292.49C5.25 292.904 5.58579 293.24 6 293.24C6.41421 293.24 6.75 292.904 6.75 292.49H5.25ZM6.75 298.448C6.75 298.034 6.41421 297.698 6 297.698C5.58579 297.698 5.25 298.034 5.25 298.448H6.75ZM5.25 301.427C5.25 301.841 5.58579 302.177 6 302.177C6.41421 302.177 6.75 301.841 6.75 301.427H5.25ZM6.75 307.385C6.75 306.971 6.41421 306.635 6 306.635C5.58579 306.635 5.25 306.971 5.25 307.385H6.75ZM5.25 310.365C5.25 310.779 5.58579 311.115 6 311.115C6.41421 311.115 6.75 310.779 6.75 310.365H5.25ZM6.75 316.323C6.75 315.909 6.41421 315.573 6 315.573C5.58579 315.573 5.25 315.909 5.25 316.323H6.75ZM5.25 319.302C5.25 319.716 5.58579 320.052 6 320.052C6.41421 320.052 6.75 319.716 6.75 319.302H5.25ZM6.75 325.26C6.75 324.846 6.41421 324.51 6 324.51C5.58579 324.51 5.25 324.846 5.25 325.26H6.75ZM5.25 328.24C5.25 328.654 5.58579 328.99 6 328.99C6.41421 328.99 6.75 328.654 6.75 328.24H5.25ZM6.75 334.198C6.75 333.784 6.41421 333.448 6 333.448C5.58579 333.448 5.25 333.784 5.25 334.198H6.75ZM5.25 337.177C5.25 337.591 5.58579 337.927 6 337.927C6.41421 337.927 6.75 337.591 6.75 337.177H5.25ZM6.75 343.135C6.75 342.721 6.41421 342.385 6 342.385C5.58579 342.385 5.25 342.721 5.25 343.135H6.75ZM5.25 346.115C5.25 346.529 5.58579 346.865 6 346.865C6.41421 346.865 6.75 346.529 6.75 346.115H5.25ZM6.75 352.073C6.75 351.659 6.41421 351.323 6 351.323C5.58579 351.323 5.25 351.659 5.25 352.073H6.75ZM5.25 355.052C5.25 355.466 5.58579 355.802 6 355.802C6.41421 355.802 6.75 355.466 6.75 355.052H5.25ZM6.75 361.01C6.75 360.596 6.41421 360.26 6 360.26C5.58579 360.26 5.25 360.596 5.25 361.01H6.75ZM5.25 363.99C5.25 364.404 5.58579 364.74 6 364.74C6.41421 364.74 6.75 364.404 6.75 363.99H5.25ZM6.75 369.948C6.75 369.534 6.41421 369.198 6 369.198C5.58579 369.198 5.25 369.534 5.25 369.948H6.75ZM5.25 372.927C5.25 373.341 5.58579 373.677 6 373.677C6.41421 373.677 6.75 373.341 6.75 372.927H5.25ZM6.75 378.885C6.75 378.471 6.41421 378.135 6 378.135C5.58579 378.135 5.25 378.471 5.25 378.885H6.75ZM5.25 381.865C5.25 382.279 5.58579 382.615 6 382.615C6.41421 382.615 6.75 382.279 6.75 381.865H5.25ZM6.75 387.823C6.75 387.409 6.41421 387.073 6 387.073C5.58579 387.073 5.25 387.409 5.25 387.823H6.75ZM5.25 390.802C5.25 391.216 5.58579 391.552 6 391.552C6.41421 391.552 6.75 391.216 6.75 390.802H5.25ZM6.75 396.76C6.75 396.346 6.41421 396.01 6 396.01C5.58579 396.01 5.25 396.346 5.25 396.76H6.75ZM5.25 399.74C5.25 400.154 5.58579 400.49 6 400.49C6.41421 400.49 6.75 400.154 6.75 399.74H5.25ZM6.75 405.698C6.75 405.284 6.41421 404.948 6 404.948C5.58579 404.948 5.25 405.284 5.25 405.698H6.75ZM5.25 408.677C5.25 409.091 5.58579 409.427 6 409.427C6.41421 409.427 6.75 409.091 6.75 408.677H5.25ZM6.75 414.635C6.75 414.221 6.41421 413.885 6 413.885C5.58579 413.885 5.25 414.221 5.25 414.635H6.75ZM5.25 417.615C5.25 418.029 5.58579 418.365 6 418.365C6.41421 418.365 6.75 418.029 6.75 417.615H5.25ZM6.75 423.573C6.75 423.159 6.41421 422.823 6 422.823C5.58579 422.823 5.25 423.159 5.25 423.573H6.75ZM5.25 426.552C5.25 426.966 5.58579 427.302 6 427.302C6.41421 427.302 6.75 426.966 6.75 426.552H5.25ZM6.75 432.51C6.75 432.096 6.41421 431.76 6 431.76C5.58579 431.76 5.25 432.096 5.25 432.51H6.75ZM5.25 5V6.48958H6.75V5H5.25ZM5.25 12.4479L5.25 15.4271H6.75L6.75 12.4479H5.25ZM5.25 21.3854V24.3646H6.75V21.3854H5.25ZM5.25 30.3229V33.3021H6.75V30.3229H5.25ZM5.25 39.2604L5.25 42.2396H6.75L6.75 39.2604H5.25ZM5.25 48.1979V51.1771H6.75V48.1979H5.25ZM5.25 57.1354V60.1146H6.75V57.1354H5.25ZM5.25 66.0729V69.0521H6.75V66.0729H5.25ZM5.25 75.0104V77.9896H6.75V75.0104H5.25ZM5.25 83.9479V86.9271H6.75V83.9479H5.25ZM5.25 92.8854V95.8646H6.75V92.8854H5.25ZM5.25 101.823V104.802H6.75V101.823H5.25ZM5.25 110.76L5.25 113.74H6.75L6.75 110.76H5.25ZM5.25 119.698V122.677H6.75V119.698H5.25ZM5.25 128.635L5.25 131.615H6.75L6.75 128.635H5.25ZM5.25 137.573V140.552H6.75V137.573H5.25ZM5.25 146.51V149.49H6.75V146.51H5.25ZM5.25 155.448L5.25 158.427H6.75L6.75 155.448H5.25ZM5.25 164.385V167.365H6.75V164.385H5.25ZM5.25 173.323V176.302H6.75V173.323H5.25ZM5.25 182.26V185.24H6.75V182.26H5.25ZM5.25 191.198V194.177H6.75V191.198H5.25ZM5.25 200.135V203.115H6.75V200.135H5.25ZM5.25 209.073V212.052H6.75V209.073H5.25ZM5.25 218.01V220.99H6.75V218.01H5.25ZM5.25 226.948L5.25 229.927H6.75L6.75 226.948H5.25ZM5.25 235.885V238.865H6.75V235.885H5.25ZM5.25 244.823L5.25 247.802H6.75L6.75 244.823H5.25ZM5.25 253.76V256.74H6.75V253.76H5.25ZM5.25 262.698V265.677H6.75V262.698H5.25ZM5.25 271.635L5.25 274.615H6.75L6.75 271.635H5.25ZM5.25 280.573V283.552H6.75V280.573H5.25ZM5.25 289.51V292.49H6.75V289.51H5.25ZM5.25 298.448V301.427H6.75V298.448H5.25ZM5.25 307.385V310.365H6.75V307.385H5.25ZM5.25 316.323V319.302H6.75V316.323H5.25ZM5.25 325.26V328.24H6.75V325.26H5.25ZM5.25 334.198V337.177H6.75V334.198H5.25ZM5.25 343.135L5.25 346.115H6.75L6.75 343.135H5.25ZM5.25 352.073V355.052H6.75V352.073H5.25ZM5.25 361.01L5.25 363.99H6.75L6.75 361.01H5.25ZM5.25 369.948V372.927H6.75V369.948H5.25ZM5.25 378.885V381.865H6.75V378.885H5.25ZM5.25 387.823L5.25 390.802H6.75L6.75 387.823H5.25ZM5.25 396.76V399.74H6.75V396.76H5.25ZM5.25 405.698V408.677H6.75V405.698H5.25ZM5.25 414.635V417.615H6.75V414.635H5.25ZM5.25 423.573V426.552H6.75V423.573H5.25ZM5.25 432.51V434H6.75V432.51H5.25Z" fill="#FFA362"/>
</svg>
