<svg width="12" height="498" viewBox="0 0 12 498" fill="none" xmlns="http://www.w3.org/2000/svg">
<path d="M6 0.669873L1.66987 5L6 9.33013L10.3301 5L6 0.669873ZM5.46967 497.53C5.76256 497.823 6.23744 497.823 6.53033 497.53L11.3033 492.757C11.5962 492.464 11.5962 491.99 11.3033 491.697C11.0104 491.404 10.5355 491.404 10.2426 491.697L6 495.939L1.75736 491.697C1.46447 491.404 0.989593 491.404 0.696699 491.697C0.403806 491.99 0.403806 492.464 0.696699 492.757L5.46967 497.53ZM5.25 6.49091C5.25 6.90512 5.58579 7.24091 6 7.24091C6.41421 7.24091 6.75 6.90512 6.75 6.49091H5.25ZM6.75 12.4545C6.75 12.0403 6.41421 11.7045 6 11.7045C5.58579 11.7045 5.25 12.0403 5.25 12.4545H6.75ZM5.25 15.4364C5.25 15.8506 5.58579 16.1864 6 16.1864C6.41421 16.1864 6.75 15.8506 6.75 15.4364H5.25ZM6.75 21.4C6.75 20.9858 6.41421 20.65 6 20.65C5.58579 20.65 5.25 20.9858 5.25 21.4H6.75ZM5.25 24.3818C5.25 24.796 5.58579 25.1318 6 25.1318C6.41421 25.1318 6.75 24.796 6.75 24.3818H5.25ZM6.75 30.3455C6.75 29.9312 6.41421 29.5955 6 29.5955C5.58579 29.5955 5.25 29.9312 5.25 30.3455H6.75ZM5.25 33.3273C5.25 33.7415 5.58579 34.0773 6 34.0773C6.41421 34.0773 6.75 33.7415 6.75 33.3273H5.25ZM6.75 39.2909C6.75 38.8767 6.41421 38.5409 6 38.5409C5.58579 38.5409 5.25 38.8767 5.25 39.2909H6.75ZM5.25 42.2727C5.25 42.6869 5.58579 43.0227 6 43.0227C6.41421 43.0227 6.75 42.6869 6.75 42.2727H5.25ZM6.75 48.2364C6.75 47.8222 6.41421 47.4864 6 47.4864C5.58579 47.4864 5.25 47.8222 5.25 48.2364H6.75ZM5.25 51.2182C5.25 51.6324 5.58579 51.9682 6 51.9682C6.41421 51.9682 6.75 51.6324 6.75 51.2182H5.25ZM6.75 57.1818C6.75 56.7676 6.41421 56.4318 6 56.4318C5.58579 56.4318 5.25 56.7676 5.25 57.1818H6.75ZM5.25 60.1636C5.25 60.5779 5.58579 60.9136 6 60.9136C6.41421 60.9136 6.75 60.5779 6.75 60.1636H5.25ZM6.75 66.1273C6.75 65.7131 6.41421 65.3773 6 65.3773C5.58579 65.3773 5.25 65.7131 5.25 66.1273H6.75ZM5.25 69.1091C5.25 69.5233 5.58579 69.8591 6 69.8591C6.41421 69.8591 6.75 69.5233 6.75 69.1091H5.25ZM6.75 75.0727C6.75 74.6585 6.41421 74.3227 6 74.3227C5.58579 74.3227 5.25 74.6585 5.25 75.0727H6.75ZM5.25 78.0546C5.25 78.4688 5.58579 78.8046 6 78.8046C6.41421 78.8046 6.75 78.4688 6.75 78.0546H5.25ZM6.75 84.0182C6.75 83.604 6.41421 83.2682 6 83.2682C5.58579 83.2682 5.25 83.604 5.25 84.0182H6.75ZM5.25 87C5.25 87.4142 5.58579 87.75 6 87.75C6.41421 87.75 6.75 87.4142 6.75 87H5.25ZM6.75 92.9637C6.75 92.5494 6.41421 92.2137 6 92.2137C5.58579 92.2137 5.25 92.5494 5.25 92.9637H6.75ZM5.25 95.9455C5.25 96.3597 5.58579 96.6955 6 96.6955C6.41421 96.6955 6.75 96.3597 6.75 95.9455H5.25ZM6.75 101.909C6.75 101.495 6.41421 101.159 6 101.159C5.58579 101.159 5.25 101.495 5.25 101.909H6.75ZM5.25 104.891C5.25 105.305 5.58579 105.641 6 105.641C6.41421 105.641 6.75 105.305 6.75 104.891H5.25ZM6.75 110.855C6.75 110.44 6.41421 110.105 6 110.105C5.58579 110.105 5.25 110.44 5.25 110.855H6.75ZM5.25 113.836C5.25 114.251 5.58579 114.586 6 114.586C6.41421 114.586 6.75 114.251 6.75 113.836H5.25ZM6.75 119.8C6.75 119.386 6.41421 119.05 6 119.05C5.58579 119.05 5.25 119.386 5.25 119.8H6.75ZM5.25 122.782C5.25 123.196 5.58579 123.532 6 123.532C6.41421 123.532 6.75 123.196 6.75 122.782H5.25ZM6.75 128.745C6.75 128.331 6.41421 127.995 6 127.995C5.58579 127.995 5.25 128.331 5.25 128.745H6.75ZM5.25 131.727C5.25 132.142 5.58579 132.477 6 132.477C6.41421 132.477 6.75 132.142 6.75 131.727H5.25ZM6.75 137.691C6.75 137.277 6.41421 136.941 6 136.941C5.58579 136.941 5.25 137.277 5.25 137.691H6.75ZM5.25 140.673C5.25 141.087 5.58579 141.423 6 141.423C6.41421 141.423 6.75 141.087 6.75 140.673H5.25ZM6.75 146.636C6.75 146.222 6.41421 145.886 6 145.886C5.58579 145.886 5.25 146.222 5.25 146.636H6.75ZM5.25 149.618C5.25 150.032 5.58579 150.368 6 150.368C6.41421 150.368 6.75 150.032 6.75 149.618H5.25ZM6.75 155.582C6.75 155.168 6.41421 154.832 6 154.832C5.58579 154.832 5.25 155.168 5.25 155.582H6.75ZM5.25 158.564C5.25 158.978 5.58579 159.314 6 159.314C6.41421 159.314 6.75 158.978 6.75 158.564H5.25ZM6.75 164.527C6.75 164.113 6.41421 163.777 6 163.777C5.58579 163.777 5.25 164.113 5.25 164.527H6.75ZM5.25 167.509C5.25 167.923 5.58579 168.259 6 168.259C6.41421 168.259 6.75 167.923 6.75 167.509H5.25ZM6.75 173.473C6.75 173.059 6.41421 172.723 6 172.723C5.58579 172.723 5.25 173.059 5.25 173.473H6.75ZM5.25 176.455C5.25 176.869 5.58579 177.205 6 177.205C6.41421 177.205 6.75 176.869 6.75 176.455H5.25ZM6.75 182.418C6.75 182.004 6.41421 181.668 6 181.668C5.58579 181.668 5.25 182.004 5.25 182.418H6.75ZM5.25 185.4C5.25 185.814 5.58579 186.15 6 186.15C6.41421 186.15 6.75 185.814 6.75 185.4H5.25ZM6.75 191.364C6.75 190.949 6.41421 190.614 6 190.614C5.58579 190.614 5.25 190.949 5.25 191.364H6.75ZM5.25 194.345C5.25 194.76 5.58579 195.095 6 195.095C6.41421 195.095 6.75 194.76 6.75 194.345H5.25ZM6.75 200.309C6.75 199.895 6.41421 199.559 6 199.559C5.58579 199.559 5.25 199.895 5.25 200.309H6.75ZM5.25 203.291C5.25 203.705 5.58579 204.041 6 204.041C6.41421 204.041 6.75 203.705 6.75 203.291H5.25ZM6.75 209.255C6.75 208.84 6.41421 208.505 6 208.505C5.58579 208.505 5.25 208.84 5.25 209.255H6.75ZM5.25 212.236C5.25 212.651 5.58579 212.986 6 212.986C6.41421 212.986 6.75 212.651 6.75 212.236H5.25ZM6.75 218.2C6.75 217.786 6.41421 217.45 6 217.45C5.58579 217.45 5.25 217.786 5.25 218.2H6.75ZM5.25 221.182C5.25 221.596 5.58579 221.932 6 221.932C6.41421 221.932 6.75 221.596 6.75 221.182H5.25ZM6.75 227.145C6.75 226.731 6.41421 226.395 6 226.395C5.58579 226.395 5.25 226.731 5.25 227.145H6.75ZM5.25 230.127C5.25 230.541 5.58579 230.877 6 230.877C6.41421 230.877 6.75 230.541 6.75 230.127H5.25ZM6.75 236.091C6.75 235.677 6.41421 235.341 6 235.341C5.58579 235.341 5.25 235.677 5.25 236.091H6.75ZM5.25 239.073C5.25 239.487 5.58579 239.823 6 239.823C6.41421 239.823 6.75 239.487 6.75 239.073H5.25ZM6.75 245.036C6.75 244.622 6.41421 244.286 6 244.286C5.58579 244.286 5.25 244.622 5.25 245.036H6.75ZM5.25 248.018C5.25 248.432 5.58579 248.768 6 248.768C6.41421 248.768 6.75 248.432 6.75 248.018H5.25ZM6.75 253.982C6.75 253.568 6.41421 253.232 6 253.232C5.58579 253.232 5.25 253.568 5.25 253.982H6.75ZM5.25 256.964C5.25 257.378 5.58579 257.714 6 257.714C6.41421 257.714 6.75 257.378 6.75 256.964H5.25ZM6.75 262.927C6.75 262.513 6.41421 262.177 6 262.177C5.58579 262.177 5.25 262.513 5.25 262.927H6.75ZM5.25 265.909C5.25 266.323 5.58579 266.659 6 266.659C6.41421 266.659 6.75 266.323 6.75 265.909H5.25ZM6.75 271.873C6.75 271.458 6.41421 271.123 6 271.123C5.58579 271.123 5.25 271.458 5.25 271.873H6.75ZM5.25 274.854C5.25 275.269 5.58579 275.604 6 275.604C6.41421 275.604 6.75 275.269 6.75 274.854H5.25ZM6.75 280.818C6.75 280.404 6.41421 280.068 6 280.068C5.58579 280.068 5.25 280.404 5.25 280.818H6.75ZM5.25 283.8C5.25 284.214 5.58579 284.55 6 284.55C6.41421 284.55 6.75 284.214 6.75 283.8H5.25ZM6.75 289.764C6.75 289.349 6.41421 289.014 6 289.014C5.58579 289.014 5.25 289.349 5.25 289.764H6.75ZM5.25 292.745C5.25 293.16 5.58579 293.495 6 293.495C6.41421 293.495 6.75 293.16 6.75 292.745H5.25ZM6.75 298.709C6.75 298.295 6.41421 297.959 6 297.959C5.58579 297.959 5.25 298.295 5.25 298.709H6.75ZM5.25 301.691C5.25 302.105 5.58579 302.441 6 302.441C6.41421 302.441 6.75 302.105 6.75 301.691H5.25ZM6.75 307.654C6.75 307.24 6.41421 306.904 6 306.904C5.58579 306.904 5.25 307.24 5.25 307.654H6.75ZM5.25 310.636C5.25 311.05 5.58579 311.386 6 311.386C6.41421 311.386 6.75 311.05 6.75 310.636H5.25ZM6.75 316.6C6.75 316.186 6.41421 315.85 6 315.85C5.58579 315.85 5.25 316.186 5.25 316.6H6.75ZM5.25 319.582C5.25 319.996 5.58579 320.332 6 320.332C6.41421 320.332 6.75 319.996 6.75 319.582H5.25ZM6.75 325.545C6.75 325.131 6.41421 324.795 6 324.795C5.58579 324.795 5.25 325.131 5.25 325.545H6.75ZM5.25 328.527C5.25 328.941 5.58579 329.277 6 329.277C6.41421 329.277 6.75 328.941 6.75 328.527H5.25ZM6.75 334.491C6.75 334.076 6.41421 333.741 6 333.741C5.58579 333.741 5.25 334.076 5.25 334.491H6.75ZM5.25 337.473C5.25 337.887 5.58579 338.223 6 338.223C6.41421 338.223 6.75 337.887 6.75 337.473H5.25ZM6.75 343.436C6.75 343.022 6.41421 342.686 6 342.686C5.58579 342.686 5.25 343.022 5.25 343.436H6.75ZM5.25 346.418C5.25 346.832 5.58579 347.168 6 347.168C6.41421 347.168 6.75 346.832 6.75 346.418H5.25ZM6.75 352.382C6.75 351.967 6.41421 351.632 6 351.632C5.58579 351.632 5.25 351.967 5.25 352.382H6.75ZM5.25 355.363C5.25 355.778 5.58579 356.113 6 356.113C6.41421 356.113 6.75 355.778 6.75 355.363H5.25ZM6.75 361.327C6.75 360.913 6.41421 360.577 6 360.577C5.58579 360.577 5.25 360.913 5.25 361.327H6.75ZM5.25 364.309C5.25 364.723 5.58579 365.059 6 365.059C6.41421 365.059 6.75 364.723 6.75 364.309H5.25ZM6.75 370.272C6.75 369.858 6.41421 369.522 6 369.522C5.58579 369.522 5.25 369.858 5.25 370.272H6.75ZM5.25 373.254C5.25 373.668 5.58579 374.004 6 374.004C6.41421 374.004 6.75 373.668 6.75 373.254H5.25ZM6.75 379.218C6.75 378.804 6.41421 378.468 6 378.468C5.58579 378.468 5.25 378.804 5.25 379.218H6.75ZM5.25 382.2C5.25 382.614 5.58579 382.95 6 382.95C6.41421 382.95 6.75 382.614 6.75 382.2H5.25ZM6.75 388.163C6.75 387.749 6.41421 387.413 6 387.413C5.58579 387.413 5.25 387.749 5.25 388.163H6.75ZM5.25 391.145C5.25 391.559 5.58579 391.895 6 391.895C6.41421 391.895 6.75 391.559 6.75 391.145H5.25ZM6.75 397.109C6.75 396.695 6.41421 396.359 6 396.359C5.58579 396.359 5.25 396.695 5.25 397.109H6.75ZM5.25 400.091C5.25 400.505 5.58579 400.841 6 400.841C6.41421 400.841 6.75 400.505 6.75 400.091H5.25ZM6.75 406.054C6.75 405.64 6.41421 405.304 6 405.304C5.58579 405.304 5.25 405.64 5.25 406.054H6.75ZM5.25 409.036C5.25 409.45 5.58579 409.786 6 409.786C6.41421 409.786 6.75 409.45 6.75 409.036H5.25ZM6.75 415C6.75 414.585 6.41421 414.25 6 414.25C5.58579 414.25 5.25 414.585 5.25 415H6.75ZM5.25 417.981C5.25 418.396 5.58579 418.731 6 418.731C6.41421 418.731 6.75 418.396 6.75 417.981H5.25ZM6.75 423.945C6.75 423.531 6.41421 423.195 6 423.195C5.58579 423.195 5.25 423.531 5.25 423.945H6.75ZM5.25 426.927C5.25 427.341 5.58579 427.677 6 427.677C6.41421 427.677 6.75 427.341 6.75 426.927H5.25ZM6.75 432.89C6.75 432.476 6.41421 432.14 6 432.14C5.58579 432.14 5.25 432.476 5.25 432.89H6.75ZM5.25 435.872C5.25 436.286 5.58579 436.622 6 436.622C6.41421 436.622 6.75 436.286 6.75 435.872H5.25ZM6.75 441.836C6.75 441.422 6.41421 441.086 6 441.086C5.58579 441.086 5.25 441.422 5.25 441.836H6.75ZM5.25 444.818C5.25 445.232 5.58579 445.568 6 445.568C6.41421 445.568 6.75 445.232 6.75 444.818H5.25ZM6.75 450.781C6.75 450.367 6.41421 450.031 6 450.031C5.58579 450.031 5.25 450.367 5.25 450.781H6.75ZM5.25 453.763C5.25 454.177 5.58579 454.513 6 454.513C6.41421 454.513 6.75 454.177 6.75 453.763H5.25ZM6.75 459.727C6.75 459.313 6.41421 458.977 6 458.977C5.58579 458.977 5.25 459.313 5.25 459.727H6.75ZM5.25 462.709C5.25 463.123 5.58579 463.459 6 463.459C6.41421 463.459 6.75 463.123 6.75 462.709H5.25ZM6.75 468.672C6.75 468.258 6.41421 467.922 6 467.922C5.58579 467.922 5.25 468.258 5.25 468.672H6.75ZM5.25 471.654C5.25 472.068 5.58579 472.404 6 472.404C6.41421 472.404 6.75 472.068 6.75 471.654H5.25ZM6.75 477.618C6.75 477.203 6.41421 476.868 6 476.868C5.58579 476.868 5.25 477.203 5.25 477.618H6.75ZM5.25 480.599C5.25 481.014 5.58579 481.349 6 481.349C6.41421 481.349 6.75 481.014 6.75 480.599H5.25ZM6.75 486.563C6.75 486.149 6.41421 485.813 6 485.813C5.58579 485.813 5.25 486.149 5.25 486.563H6.75ZM5.25 489.545C5.25 489.959 5.58579 490.295 6 490.295C6.41421 490.295 6.75 489.959 6.75 489.545H5.25ZM6.75 495.509C6.75 495.094 6.41421 494.759 6 494.759C5.58579 494.759 5.25 495.094 5.25 495.509H6.75ZM5.25 5V6.49091H6.75V5H5.25ZM5.25 12.4545L5.25 15.4364H6.75L6.75 12.4545H5.25ZM5.25 21.4V24.3818H6.75V21.4H5.25ZM5.25 30.3455V33.3273H6.75V30.3455H5.25ZM5.25 39.2909L5.25 42.2727H6.75L6.75 39.2909H5.25ZM5.25 48.2364V51.2182H6.75V48.2364H5.25ZM5.25 57.1818V60.1636H6.75V57.1818H5.25ZM5.25 66.1273V69.1091H6.75V66.1273H5.25ZM5.25 75.0727V78.0546H6.75V75.0727H5.25ZM5.25 84.0182V87H6.75V84.0182H5.25ZM5.25 92.9637V95.9455H6.75V92.9637H5.25ZM5.25 101.909V104.891H6.75V101.909H5.25ZM5.25 110.855L5.25 113.836H6.75L6.75 110.855H5.25ZM5.25 119.8V122.782H6.75V119.8H5.25ZM5.25 128.745L5.25 131.727H6.75L6.75 128.745H5.25ZM5.25 137.691V140.673H6.75V137.691H5.25ZM5.25 146.636V149.618H6.75V146.636H5.25ZM5.25 155.582L5.25 158.564H6.75L6.75 155.582H5.25ZM5.25 164.527V167.509H6.75V164.527H5.25ZM5.25 173.473V176.455H6.75V173.473H5.25ZM5.25 182.418V185.4H6.75V182.418H5.25ZM5.25 191.364V194.345H6.75V191.364H5.25ZM5.25 200.309V203.291H6.75V200.309H5.25ZM5.25 209.255V212.236H6.75V209.255H5.25ZM5.25 218.2V221.182H6.75V218.2H5.25ZM5.25 227.145L5.25 230.127H6.75L6.75 227.145H5.25ZM5.25 236.091V239.073H6.75V236.091H5.25ZM5.25 245.036L5.25 248.018H6.75L6.75 245.036H5.25ZM5.25 253.982V256.964H6.75V253.982H5.25ZM5.25 262.927V265.909H6.75V262.927H5.25ZM5.25 271.873L5.25 274.854H6.75L6.75 271.873H5.25ZM5.25 280.818V283.8H6.75V280.818H5.25ZM5.25 289.764V292.745H6.75V289.764H5.25ZM5.25 298.709V301.691H6.75V298.709H5.25ZM5.25 307.654V310.636H6.75V307.654H5.25ZM5.25 316.6V319.582H6.75V316.6H5.25ZM5.25 325.545V328.527H6.75V325.545H5.25ZM5.25 334.491V337.473H6.75V334.491H5.25ZM5.25 343.436L5.25 346.418H6.75L6.75 343.436H5.25ZM5.25 352.382V355.363H6.75V352.382H5.25ZM5.25 361.327V364.309H6.75V361.327H5.25ZM5.25 370.272V373.254H6.75V370.272H5.25ZM5.25 379.218V382.2H6.75V379.218H5.25ZM5.25 388.163L5.25 391.145H6.75L6.75 388.163H5.25ZM5.25 397.109V400.091H6.75V397.109H5.25ZM5.25 406.054V409.036H6.75V406.054H5.25ZM5.25 415V417.981H6.75V415H5.25ZM5.25 423.945V426.927H6.75V423.945H5.25ZM5.25 432.89V435.872H6.75V432.89H5.25ZM5.25 441.836V444.818H6.75V441.836H5.25ZM5.25 450.781V453.763H6.75V450.781H5.25ZM5.25 459.727L5.25 462.709H6.75L6.75 459.727H5.25ZM5.25 468.672V471.654H6.75V468.672H5.25ZM5.25 477.618V480.599H6.75V477.618H5.25ZM5.25 486.563V489.545H6.75V486.563H5.25ZM5.25 495.509V497H6.75V495.509H5.25Z" fill="#FFA362"/>
</svg>
