<svg width="17" height="17" viewBox="0 0 17 17" fill="none" xmlns="http://www.w3.org/2000/svg">
<path fill-rule="evenodd" clip-rule="evenodd" d="M3.69566 7.39133C5.73672 7.39133 7.39133 5.73672 7.39133 3.69566C7.39133 1.6546 5.73672 0 3.69566 0C1.6546 0 0 1.6546 0 3.69566C0 5.73672 1.6546 7.39133 3.69566 7.39133ZM3.69566 17C5.73672 17 7.39133 15.3454 7.39133 13.3044C7.39133 11.2633 5.73672 9.60869 3.69566 9.60869C1.6546 9.60869 0 11.2633 0 13.3044C0 15.3454 1.6546 17 3.69566 17ZM16.9995 3.69566C16.9995 5.73672 15.3449 7.39133 13.3038 7.39133C11.2628 7.39133 9.60817 5.73672 9.60817 3.69566C9.60817 1.6546 11.2628 0 13.3038 0C15.3449 0 16.9995 1.6546 16.9995 3.69566ZM13.3038 17C15.3449 17 16.9995 15.3454 16.9995 13.3044C16.9995 11.2633 15.3449 9.60869 13.3038 9.60869C11.2628 9.60869 9.60817 11.2633 9.60817 13.3044C9.60817 15.3454 11.2628 17 13.3038 17Z" fill="#A9B0CC"/>
</svg>
