<svg width="1440" height="813" viewBox="0 0 1440 813" fill="none" xmlns="http://www.w3.org/2000/svg">
<path d="M-39.9428 49.3104C90.52 -40.507 163.557 97.7741 352.279 49.3104C541 0.846622 550.5 88.8459 744.5 49.3104C938.5 9.77485 1001 85.7747 1152.5 49.3104C1304 12.846 1398.48 -40.507 1528.94 49.3104C1741.02 195.315 1741.02 616.843 1528.94 762.847C1398.48 852.664 1417 697.846 1136.72 762.847C856.443 827.848 798 782.848 744.5 762.847C691 742.846 532.5 723.846 352.279 762.847C172.057 801.848 90.52 852.664 -39.9428 762.847C-252.019 616.843 -252.019 195.315 -39.9428 49.3104Z" fill="#F1F6F9"/>
</svg>
