<svg width="1440" height="438" viewBox="0 0 1440 438" fill="none" xmlns="http://www.w3.org/2000/svg">
<path d="M18.0572 -27.913C148.52 -82.7155 221.557 1.65738 410.279 -27.913C599 -57.4834 608.5 -3.79022 802.5 -27.913C996.5 -52.0358 1059 -5.66412 1210.5 -27.913C1362 -50.1619 1456.48 -82.7155 1586.94 -27.913C1799.02 61.1723 1799.02 318.37 1586.94 407.455C1456.48 462.258 1475 367.794 1194.72 407.455C914.443 447.116 856 419.659 802.5 407.455C749 395.251 590.5 383.658 410.279 407.455C230.057 431.252 148.52 462.258 18.0572 407.455C-194.019 318.37 -194.019 61.1723 18.0572 -27.913Z" fill="#F9FBFC"/>
</svg>
